HIERARCHY
ROOT Hips
{
	OFFSET 0.000000 0.000000 0.000000
	CHANNELS 6 Xposition Yposition Zposition Xrotation Yrotation Zrotation
	JOINT LeftUpLeg_virtual
	{
		OFFSET 0.000000 0.000000 0.000000
		CHANNELS 3 Xrotation Yrotation Zrotation
		JOINT LeftUpLeg
		{
			OFFSET 13.026900 -6.336304 -1.092800
			CHANNELS 3 Xrotation Yrotation Zrotation
			JOINT LeftLeg
			{
				OFFSET 0.524474 -46.096886 9.782700
				CHANNELS 3 Xrotation Yrotation Zrotation
				JOINT LeftFoot
				{
					OFFSET -0.524474 -53.427422 -12.948200
					CHANNELS 3 Xrotation Yrotation Zrotation
					JOINT LeftToeBase
					{
						OFFSET 0.192200 -14.009700 16.364100
						CHANNELS 3 Xrotation Yrotation Zrotation
						JOINT LeftToe_End
						{
							OFFSET -1.784700 -0.561700 9.474800
							CHANNELS 3 Xrotation Yrotation Zrotation
							End Site
							{
								OFFSET 0 0 0
							}
						}
					}
				}
			}
		}
	}
	JOINT RightUpLeg_virtual
	{
		OFFSET 0.000000 0.000000 0.000000
		CHANNELS 3 Xrotation Yrotation Zrotation
		JOINT RightUpLeg
		{
			OFFSET -12.883000 -6.336304 -1.092800
			CHANNELS 3 Xrotation Yrotation Zrotation
			JOINT RightLeg
			{
				OFFSET -0.524587 -46.096825 9.782800
				CHANNELS 3 Xrotation Yrotation Zrotation
				JOINT RightFoot
				{
					OFFSET 0.524587 -53.427383 -12.948300
					CHANNELS 3 Xrotation Yrotation Zrotation
					JOINT RightToeBase
					{
						OFFSET -0.192200 -14.009700 16.364100
						CHANNELS 3 Xrotation Yrotation Zrotation
						JOINT RightToe_End
						{
							OFFSET 1.784700 -0.561700 9.474800
							CHANNELS 3 Xrotation Yrotation Zrotation
							End Site
							{
								OFFSET 0 0 0
							}
						}
					}
				}
			}
		}
	}
	JOINT Spine_virtual
	{
		OFFSET 0.000000 0.000000 0.000000
		CHANNELS 3 Xrotation Yrotation Zrotation
		JOINT Spine
		{
			OFFSET 0.072000 7.257294 -0.789700
			CHANNELS 3 Xrotation Yrotation Zrotation
			JOINT Spine1
			{
				OFFSET 0.000000 12.508769 -0.658067
				CHANNELS 3 Xrotation Yrotation Zrotation
				JOINT Spine1_split
				{
					OFFSET 0.000000 12.508769 -0.658067
					CHANNELS 3 Xrotation Yrotation Zrotation
					JOINT Spine2
					{
						OFFSET 0.000000 12.508769 -0.658067
						CHANNELS 3 Xrotation Yrotation Zrotation
						JOINT Neck_virtual
						{
							OFFSET 0.000000 0.000000 0.000000
							CHANNELS 3 Xrotation Yrotation Zrotation
							JOINT Neck
							{
								OFFSET 0.000000 14.033295 7.520400
								CHANNELS 3 Xrotation Yrotation Zrotation
								JOINT Head
								{
									OFFSET 0.000000 8.198502 5.703100
									CHANNELS 3 Xrotation Yrotation Zrotation
									JOINT HeadTop_End
									{
										OFFSET 0.000000 17.760803 13.332701
										CHANNELS 3 Xrotation Yrotation Zrotation
										End Site
										{
											OFFSET 0 0 0
										}
									}
								}
							}
						}
						JOINT LeftShoulder_virtual
						{
							OFFSET 0.000000 0.000000 0.000000
							CHANNELS 3 Xrotation Yrotation Zrotation
							JOINT LeftShoulder
							{
								OFFSET 6.292450 5.785301 -0.669000
								CHANNELS 3 Xrotation Yrotation Zrotation
								JOINT LeftShoulder_split
								{
									OFFSET 6.292450 5.785301 -0.669000
									CHANNELS 3 Xrotation Yrotation Zrotation
									JOINT LeftArm
									{
										OFFSET 13.907140 -6.093903 1.965100
										CHANNELS 3 Xrotation Yrotation Zrotation
										JOINT LeftForeArm
										{
											OFFSET 34.140198 0.000000 0.000000
											CHANNELS 3 Xrotation Yrotation Zrotation
											JOINT LeftHand
											{
												OFFSET 40.960209 0.000000 0.000000
												CHANNELS 3 Xrotation Yrotation Zrotation
												End Site
												{
													OFFSET 0 0 0
												}
											}
										}
									}
								}
							}
						}
						JOINT RightShoulder_virtual
						{
							OFFSET 0.000000 0.000000 0.000000
							CHANNELS 3 Xrotation Yrotation Zrotation
							JOINT RightShoulder
							{
								OFFSET -6.292450 5.785301 -0.669000
								CHANNELS 3 Xrotation Yrotation Zrotation
								JOINT RightShoulder_split
								{
									OFFSET -6.292450 5.785301 -0.669000
									CHANNELS 3 Xrotation Yrotation Zrotation
									JOINT RightArm
									{
										OFFSET -13.907140 -6.093903 1.965100
										CHANNELS 3 Xrotation Yrotation Zrotation
										JOINT RightForeArm
										{
											OFFSET -34.140198 0.000000 0.000000
											CHANNELS 3 Xrotation Yrotation Zrotation
											JOINT RightHand
											{
												OFFSET -40.960209 0.000000 0.000000
												CHANNELS 3 Xrotation Yrotation Zrotation
												End Site
												{
													OFFSET 0 0 0
												}
											}
										}
									}
								}
							}
						}
					}
				}
			}
		}
	}
}
MOTION
Frames: 4
Frame Time: 0.03333333
235.191055 53.066032 -39.589054 0.000000 0.000000 0.000000 -129.852988 -18.153705 50.101565 -73.463575 -1.417624 5.779007 107.489433 -7.886070 -1.198024 3.814852 1.061817 6.618377 5.827325 -1.755623 1.972045 0.000000 0.000000 0.000000 -131.391830 -22.660411 47.181584 -90.390457 13.416074 17.247331 57.546044 2.692214 1.333667 2.100966 6.706061 5.645841 -11.513814 0.157622 0.556331 0.000000 0.000000 0.000000 -137.440755 -20.621900 61.665400 8.807985 6.167954 6.463951 23.347137 4.389267 2.058271 -0.915984 1.296472 1.771638 0.000000 0.000000 0.000000 20.254620 4.916200 1.297632 53.204967 -3.843948 -9.925540 -22.599785 -16.126538 12.353602 0.000000 0.000000 0.000000 21.122442 6.463663 2.059506 2.550925 1.070343 5.003648 9.305493 -5.146709 0.860488 -32.626499 -21.041938 -6.739925 176.566674 -41.035961 179.611545 0.000000 0.000000 0.000000 18.164099 4.867894 2.629553 -1.251599 -3.822515 -1.300832 12.753182 -3.809400 7.060304 -77.226593 2.489903 46.333080 -164.583271 61.968066 159.123887 0.000000 0.000000 0.000000 
243.977234 46.860268 -41.086033 0.000000 0.000000 0.000000 -132.377153 -4.942897 61.375547 -71.928852 10.707856 10.135039 103.689443 -1.870125 -2.709443 -0.315704 6.795957 8.661394 6.062420 -2.106356 1.829025 0.000000 0.000000 0.000000 -132.630635 -11.065672 54.373845 -91.810918 13.076693 15.952957 63.720044 1.888305 2.829213 -3.377791 7.799125 9.820159 -11.744170 0.570546 -0.438341 0.000000 0.000000 0.000000 -139.242463 -11.099627 71.036699 9.729289 3.805995 5.562533 22.610081 4.751139 2.675462 -0.464225 -0.140079 2.020886 0.000000 0.000000 0.000000 19.298949 5.454985 1.983614 51.832892 -3.359956 -12.035396 -18.807085 -12.950466 13.618885 0.000000 0.000000 0.000000 21.066639 6.424420 2.524749 1.872558 3.194394 2.954377 9.361707 -4.943765 -0.662985 -20.397935 -24.735878 -10.818192 174.129307 -45.889186 177.641882 0.000000 0.000000 0.000000 17.678929 5.185466 3.654498 -1.895039 -4.912633 -3.292122 12.118402 0.908949 5.167816 -61.761186 -3.772530 43.986992 -155.211514 73.273983 150.448495 0.000000 0.000000 0.000000 
252.743988 41.018478 -42.471470 0.000000 0.000000 0.000000 -137.404978 6.179544 75.107321 -72.945266 26.569514 15.708728 100.435329 5.785756 -3.879404 -4.343306 11.523593 12.229210 5.018594 -2.371869 1.853685 0.000000 0.000000 0.000000 -135.050940 -0.284407 63.142264 -90.964692 11.384541 13.549678 67.993686 0.858513 4.611553 -8.932013 6.821891 13.748426 -12.362171 0.739170 -1.613276 0.000000 0.000000 0.000000 -142.638105 -2.375462 81.792881 10.850846 1.857599 4.207712 21.571107 5.114540 3.022615 -0.304389 -1.369564 1.974943 0.000000 0.000000 0.000000 18.920097 5.924517 2.473336 49.390788 -2.394816 -12.630887 -16.868511 -11.293087 14.741695 0.000000 0.000000 0.000000 21.199620 6.429618 2.810805 1.276488 3.890695 -0.001991 9.275673 -2.976580 -0.137472 -12.289739 -26.163620 -13.721498 171.738837 -52.796252 174.652349 0.000000 0.000000 0.000000 17.374128 5.514133 4.534865 -2.370043 -4.288488 -4.189846 11.190170 6.076097 3.693445 -48.258387 -4.935007 42.350130 -66.443028 83.336736 62.583528 0.000000 0.000000 0.000000 
261.335602 36.399120 -43.498020 0.000000 0.000000 0.000000 -144.072705 14.691097 90.130924 -76.955953 40.864759 21.174391 99.477293 12.623815 -4.614049 -7.035676 13.654826 16.608758 2.587880 -2.574888 2.171730 0.000000 0.000000 0.000000 -138.637062 8.697375 72.785795 -87.528881 9.461085 10.681452 70.091367 -0.700723 6.585456 -13.694132 4.079654 15.510590 -12.586099 0.611298 -2.356433 0.000000 0.000000 0.000000 -147.675834 5.376024 94.210022 12.037157 0.714410 2.573498 20.393143 5.522717 3.041031 -0.576353 -1.922042 1.656562 0.000000 0.000000 0.000000 19.087580 6.406522 2.639951 45.730442 -0.688865 -11.104825 -17.465174 -11.168303 15.902291 0.000000 0.000000 0.000000 21.358737 6.635811 2.844374 0.743517 3.148682 -2.951814 8.498809 -1.170165 1.754745 -6.771312 -25.426670 -15.676671 169.108230 -60.702234 170.563894 0.000000 0.000000 0.000000 17.110244 5.850156 5.098989 -2.731667 -2.846450 -4.131305 11.039754 10.606518 2.145418 -38.264321 -2.967289 39.959643 -11.450098 67.079862 8.674272 0.000000 0.000000 0.000000 
